# xmcd CD database file
#
# Track frame offsets:
#	150
#	15667
#	31802
#	45427
#	67145
#	81822
#	93165
#	110615
#	125065
#	142497
#
# Disc length: 2105 seconds
#
# Revision: 2
# Processed by: cddbd v1.5.2PL0 Copyright (c) Steve Scherf et al.
# Submitted via: CDex 1.70beta2
#
DISCID=8908370a
DTITLE=Various Artist - Golden POPS １９７３年のヒットソング Part 01 - 38
DYEAR=1973
DGENRE=Pop
TTITLE0=幸せの黄色いリボン - ドーン
TTITLE1=キャン・ザ・キャン - スージー・クアトロ
TTITLE2=クレア - ギルバート・オサリヴァン
TTITLE3=ランブリン・マン - オールマン・ブラザーズ・バンド
TTITLE4=グッバイ・イエロー・ブリック・ロード - エルトン・ジョン
TTITLE5=クレイジー・ホース - オズモンズ
TTITLE6=ブラザー・ルイ - ストーリーズ
TTITLE7=恋のハートビート - デフランコ・ファミリー
TTITLE8=タッチ・ミー・イン・ザ・モーニング - ダイアナ・ロス
TTITLE9=アメリカン・バンド - グランド・ファンク・レイルロード
EXTD=YEAR: 1973
EXTT0=
EXTT1=
EXTT2=
EXTT3=
EXTT4=
EXTT5=
EXTT6=
EXTT7=
EXTT8=
EXTT9=
PLAYORDER=
